<?xml version="1.0" encoding="utf-8"?>
<!-- Generator: Adobe Illustrator 18.1.1, SVG Export Plug-In . SVG Version: 6.00 Build 0)  -->
<svg version="1.2" baseProfile="tiny" id="Laag_1" xmlns="http://www.w3.org/2000/svg" xmlns:xlink="http://www.w3.org/1999/xlink"
	 x="0px" y="0px" viewBox="0 0 283.46 283.46" xml:space="preserve">
<g id="logo">
	<g>
		<g>
			<polygon fill="#009286" points="27.7,123.28 27.7,146.363 41.55,160.213 48.475,146.363 55.4,146.363 55.4,123.28 			"/>
			<polygon fill="#F3C000" points="41.55,160.213 55.4,146.363 41.55,132.512 			"/>
		</g>
		<g>
			<g>
				<g>
					<path fill="#939393" d="M68.283,141.509l0.909-3.549h4.567l0.887,3.549h3.526l-4.345-16.008h-4.412l-4.435,16.008H68.283z
						 M73.049,135.5h-3.193l1.53-6.919h0.045L73.049,135.5z"/>
					<path fill="#939393" d="M84.384,134.501h1.952c1.684,0,2.216,0.865,2.216,2.285c0,2.238-1.596,2.261-2.306,2.261h-1.863
						V134.501z M84.384,127.962h2.063c1.13,0,1.93,0.864,1.93,2.04c0,1.552-1.021,2.04-1.752,2.04h-2.24L84.384,127.962
						L84.384,127.962z M86.957,141.509c1.42,0,4.945-0.177,4.945-4.236c0-2.195-0.62-3.724-2.994-4.057v-0.046
						c1.819-0.354,2.728-1.685,2.728-3.524c0-3.414-2.106-4.145-4.655-4.145h-5.942v16.008H86.957z"/>
					<polygon fill="#939393" points="98.935,141.509 98.935,129.801 98.98,129.801 103.347,141.509 107.76,141.509 107.76,125.501 
						104.633,125.501 104.633,136.586 104.589,136.586 100.332,125.501 95.808,125.501 95.808,141.509 					"/>
					<polygon fill="#939393" points="113.014,134.438 115.163,132.291 113.014,130.148 110.872,132.291 					"/>
					<path fill="#939393" d="M119.539,141.509l0.909-3.549h4.568l0.887,3.549h3.525l-4.345-16.008h-4.412l-4.435,16.008H119.539z
						 M124.307,135.5h-3.193l1.53-6.919h0.044L124.307,135.5z"/>
					<polygon fill="#939393" points="135.443,141.509 135.443,129.159 135.486,129.159 138.414,141.509 141.607,141.509 
						144.688,129.159 144.733,129.159 144.733,141.509 147.993,141.509 147.993,125.501 142.781,125.501 140.122,136.387 
						140.077,136.387 137.571,125.501 132.183,125.501 132.183,141.509 					"/>
					<path fill="#939393" d="M155.733,127.962h1.484c1.064,0,1.707,0.577,1.707,2.106c0,1.019-0.376,2.35-1.707,2.35h-1.484V127.962
						z M155.733,134.879h0.864c2.571,0,2.393,1.617,2.393,3.524c0,1.042-0.088,2.129,0.356,3.106h3.281
						c-0.311-0.665-0.376-3.681-0.376-4.701c0-2.884-2.174-3.059-2.905-3.149v-0.044c2.173-0.355,2.97-1.885,2.97-3.925
						c0-2.726-1.463-4.189-3.746-4.189h-6.185v16.008h3.348L155.733,134.879L155.733,134.879z"/>
					<path fill="#939393" d="M171.38,139.38c-1.884,0-2.128-1.773-2.128-5.876c0-4.102,0.244-5.876,2.128-5.876
						c1.885,0,2.129,1.775,2.129,5.876C173.509,137.607,173.265,139.38,171.38,139.38z M171.38,141.775
						c5.522,0,5.522-4.081,5.522-8.27c0-4.235,0-8.27-5.522-8.27c-5.521,0-5.521,4.036-5.521,8.27
						C165.86,137.694,165.86,141.775,171.38,141.775z"/>
				</g>
			</g>
			<g>
				<path fill="#939393" d="M193.023,130.005c0.022-0.902-0.044-1.803-0.462-2.307c-0.418-0.505-1.362-0.682-1.78-0.682
					c-1.67,0-2.33,1.012-2.396,1.231c-0.065,0.177-0.461,0.572-0.461,3.296v4.242c0,3.89,1.275,4.352,2.836,4.352
					c0.614,0,2.483-0.221,2.506-3.319h2.087c0.088,5.01-3.451,5.01-4.483,5.01c-1.977,0-5.01-0.132-5.01-6.285v-4.483
					c0-4.483,1.977-5.758,5.098-5.758c3.143,0,4.352,1.626,4.154,4.704H193.023z"/>
				<path fill="#939393" d="M199.813,141.498h-1.802v-15.867h1.802V141.498z"/>
				<path fill="#939393" d="M205.13,136.531c0,3.098,0.836,3.715,2.242,3.715c1.231,0,1.868-0.989,1.934-2.111h1.978
					c-0.021,2.462-1.537,3.584-3.868,3.584c-2.352,0-4.22-0.704-4.22-5.605c0-3.252,0.375-5.933,4.22-5.933
					c3.165,0,3.956,1.736,3.956,5.407v0.944C211.371,136.531,205.13,136.531,205.13,136.531z M209.459,135.17
					c0-3.232-0.9-3.627-2.219-3.627c-1.144,0-2.087,0.55-2.109,3.627H209.459z"/>
				<path fill="#939393" d="M219.633,139.895h-0.043c-0.55,1.274-1.407,1.824-2.792,1.824c-2.351,0-3.032-1.517-3.032-3.65
					c0-3.362,3.298-3.516,5.823-3.45c0.043-1.473,0.065-3.078-1.868-3.078c-1.208,0-1.846,0.814-1.736,1.978h-1.956
					c0.089-2.483,1.407-3.34,3.758-3.34c2.857,0,3.604,1.472,3.604,3.34v5.341c0,0.879,0.089,1.78,0.22,2.636h-1.978
					L219.633,139.895L219.633,139.895z M215.568,138.202c0,1.076,0.529,2.044,1.737,2.044c1.098,0,2.461-0.681,2.285-4.264
					C217.876,136.004,215.568,135.851,215.568,138.202z"/>
				<path fill="#939393" d="M226.775,132.071h0.043c0.747-1.693,1.67-1.889,3.429-1.889v1.868c-0.152-0.022-0.33-0.044-0.483-0.066
					c-0.154-0.021-0.307-0.044-0.483-0.044c-2,0-2.506,1.517-2.506,3.012v6.549h-1.803v-11.098h1.803V132.071z"/>
				<path fill="#939393" d="M232.069,125.631h2.023v1.934h-2.023V125.631z M233.982,141.498h-1.802v-11.097h1.802V141.498z"/>
				<path fill="#939393" d="M243.123,141.498v-7.691c0-1.187-0.417-2.154-1.955-2.154c-1.978,0-2.264,1.758-2.264,3.274v6.571
					h-1.802v-8.79c0-0.77-0.044-1.537-0.111-2.307h1.913v1.427h0.089c0.702-1.252,1.538-1.648,2.966-1.648
					c2.375,0,2.967,1.427,2.967,3.626v7.691H243.123z"/>
				<path fill="#939393" d="M253.957,130.401h1.803v12.22c0,2.483-1.65,3.076-4.088,3.076c-1.847,0-3.517-0.923-3.363-2.968h2.023
					c0.02,1.033,0.703,1.605,1.691,1.605c1.253,0,1.934-0.769,1.934-1.912v-2.308h-0.065c-0.463,0.879-1.474,1.384-2.44,1.384
					c-3.011,0-3.604-2.593-3.604-5.889c0-5.099,2.571-5.429,3.472-5.429c1.165,0,2.088,0.505,2.593,1.582h0.044V130.401z
					 M251.848,131.675c-2.044,0-2.11,2.461-2.11,3.935c0,3.559,0.813,4.394,2.154,4.394c2.177,0,2.109-2.571,2.109-4.109
					C254.001,134.246,254.11,131.675,251.848,131.675z"/>
			</g>
		</g>
	</g>
</g>
<g id="guides">
</g>
</svg>
